<?xml version="1.0" encoding="utf-8" standalone="no"?>
<!DOCTYPE svg PUBLIC "-//W3C//DTD SVG 1.1//EN"
  "http://www.w3.org/Graphics/SVG/1.1/DTD/svg11.dtd">
<svg xmlns:xlink="http://www.w3.org/1999/xlink" width="237.2828pt" height="69.84pt" viewBox="0 0 237.2828 69.84" xmlns="http://www.w3.org/2000/svg" version="1.1">
 <metadata>
  <rdf:RDF xmlns:dc="http://purl.org/dc/elements/1.1/" xmlns:cc="http://creativecommons.org/ns#" xmlns:rdf="http://www.w3.org/1999/02/22-rdf-syntax-ns#">
   <cc:Work>
    <dc:type rdf:resource="http://purl.org/dc/dcmitype/StillImage"/>
    <dc:date>2022-09-30T18:39:24.048915</dc:date>
    <dc:format>image/svg+xml</dc:format>
    <dc:creator>
     <cc:Agent>
      <dc:title>Matplotlib v3.5.3, https://matplotlib.org/</dc:title>
     </cc:Agent>
    </dc:creator>
   </cc:Work>
  </rdf:RDF>
 </metadata>
 <defs>
  <style type="text/css">*{stroke-linejoin: round; stroke-linecap: butt}</style>
 </defs>
 <g id="figure_1">
  <g id="patch_1">
   <path d="M 0 69.84 
L 237.2828 69.84 
L 237.2828 0 
L 0 0 
L 0 69.84 
z
" style="fill: none"/>
  </g>
  <g id="axes_1">
   <g id="line2d_1">
    <defs>
     <path id="m469295c812" d="M 0 -6 
L -6 6 
L 6 6 
z
" style="stroke: #4b8bbe; stroke-linejoin: miter"/>
    </defs>
    <g>
     <use xlink:href="#m469295c812" x="45.996923" y="45.996923" style="fill: #4b8bbe; stroke: #4b8bbe; stroke-linejoin: miter"/>
    </g>
   </g>
   <g id="line2d_2">
    <g>
     <use xlink:href="#m469295c812" x="23.843077" y="23.843077" style="fill: #4b8bbe; stroke: #4b8bbe; stroke-linejoin: miter"/>
    </g>
   </g>
   <g id="line2d_3">
    <defs>
     <path id="mefabc1884a" d="M 0 -6 
L -6 6 
L 6 6 
z
" style="stroke: #ffd43b; stroke-linejoin: miter"/>
    </defs>
    <g>
     <use xlink:href="#mefabc1884a" x="45.996923" y="23.843077" style="fill: #ffd43b; stroke: #ffd43b; stroke-linejoin: miter"/>
    </g>
   </g>
   <g id="line2d_4">
    <path d="M 9.72 60.12 
L 23.843077 60.12 
" clip-path="url(#p7e70db45c6)" style="fill: none; stroke: #808080; stroke-width: 4; stroke-linecap: square"/>
   </g>
   <g id="line2d_5">
    <path d="M 60.12 60.12 
L 45.996923 60.12 
" clip-path="url(#p7e70db45c6)" style="fill: none; stroke: #808080; stroke-width: 4; stroke-linecap: square"/>
   </g>
   <g id="line2d_6">
    <path d="M 9.72 9.72 
L 23.843077 9.72 
" clip-path="url(#p7e70db45c6)" style="fill: none; stroke: #808080; stroke-width: 4; stroke-linecap: square"/>
   </g>
   <g id="line2d_7">
    <path d="M 45.996923 9.72 
L 60.12 9.72 
" clip-path="url(#p7e70db45c6)" style="fill: none; stroke: #808080; stroke-width: 4; stroke-linecap: square"/>
   </g>
   <g id="line2d_8">
    <path d="M 9.72 60.12 
L 9.72 9.72 
" clip-path="url(#p7e70db45c6)" style="fill: none; stroke: #808080; stroke-width: 4; stroke-linecap: square"/>
   </g>
   <g id="line2d_9">
    <path d="M 60.12 60.12 
L 60.12 9.72 
" clip-path="url(#p7e70db45c6)" style="fill: none; stroke: #808080; stroke-width: 4; stroke-linecap: square"/>
   </g>
   <g id="line2d_10">
    <path d="M 18.969231 46.064177 
L 19.168163 46.049141 
L 19.367096 46.01002 
L 19.566028 45.938921 
L 19.764961 45.830259 
L 19.963893 45.683327 
L 20.162826 45.505011 
L 20.361758 45.312008 
L 20.560691 45.131778 
L 20.759623 45.001454 
L 20.958556 44.964183 
L 21.157488 45.062805 
L 21.356421 45.331452 
L 21.555353 45.786332 
L 21.754286 46.417537 
L 21.953218 47.183988 
L 22.152151 48.013378 
L 22.351083 48.808244 
L 22.550016 49.45809 
L 22.748948 49.856085 
L 22.947881 49.917573 
L 23.146813 49.596842 
L 23.345746 48.898548 
L 23.544678 47.880986 
L 23.743611 46.649954 
L 23.942543 45.343892 
L 24.141476 44.11286 
L 24.340408 43.095298 
L 24.539341 42.397004 
L 24.738273 42.076274 
L 24.937206 42.137761 
L 25.136138 42.535756 
L 25.335071 43.185603 
L 25.534003 43.980468 
L 25.732936 44.809858 
L 25.931868 45.576309 
L 26.130801 46.207514 
L 26.329733 46.662394 
L 26.528666 46.931041 
L 26.727598 47.029663 
L 26.926531 46.992392 
L 27.125463 46.862068 
L 27.324396 46.681838 
L 27.523328 46.488836 
L 27.722261 46.310519 
L 27.921193 46.163587 
L 28.120126 46.054925 
L 28.319058 45.983827 
L 28.517991 45.944706 
L 28.716923 45.929669 
" clip-path="url(#p7e70db45c6)" style="fill: none; stroke: #808080; stroke-width: 3; stroke-linecap: square"/>
   </g>
   <g id="text_1">
    <!-- covseisnet -->
    <g style="fill: #808080" transform="translate(68.150769 44.670469)scale(0.33 -0.33)">
     <defs>
      <path id="Ubuntu-Medium-63" d="M 307 1670 
Q 307 2042 422 2365 
Q 538 2688 752 2925 
Q 966 3162 1273 3296 
Q 1581 3430 1965 3430 
Q 2438 3430 2861 3258 
L 2694 2624 
Q 2560 2682 2390 2720 
Q 2221 2758 2029 2758 
Q 1574 2758 1337 2473 
Q 1101 2189 1101 1670 
Q 1101 1171 1325 880 
Q 1549 589 2080 589 
Q 2278 589 2470 627 
Q 2662 666 2803 723 
L 2912 83 
Q 2784 19 2525 -32 
Q 2266 -83 1990 -83 
Q 1562 -83 1245 48 
Q 928 179 720 412 
Q 512 646 409 969 
Q 307 1293 307 1670 
z
" transform="scale(0.015625)"/>
      <path id="Ubuntu-Medium-6f" d="M 3520 1677 
Q 3520 1280 3405 953 
Q 3290 627 3078 396 
Q 2867 166 2569 38 
Q 2272 -90 1914 -90 
Q 1555 -90 1260 38 
Q 966 166 755 396 
Q 544 627 425 953 
Q 307 1280 307 1677 
Q 307 2074 425 2397 
Q 544 2720 758 2950 
Q 973 3181 1267 3305 
Q 1562 3430 1914 3430 
Q 2266 3430 2563 3305 
Q 2861 3181 3072 2950 
Q 3283 2720 3401 2397 
Q 3520 2074 3520 1677 
z
M 2726 1677 
Q 2726 2176 2512 2467 
Q 2298 2758 1914 2758 
Q 1530 2758 1315 2467 
Q 1101 2176 1101 1677 
Q 1101 1171 1315 876 
Q 1530 582 1914 582 
Q 2298 582 2512 876 
Q 2726 1171 2726 1677 
z
" transform="scale(0.015625)"/>
      <path id="Ubuntu-Medium-76" d="M 1350 0 
Q 1030 659 694 1513 
Q 358 2368 83 3347 
L 909 3347 
Q 979 3066 1072 2742 
Q 1165 2419 1270 2096 
Q 1376 1773 1488 1469 
Q 1600 1165 1696 922 
Q 1792 1165 1901 1469 
Q 2010 1773 2115 2096 
Q 2221 2419 2317 2742 
Q 2413 3066 2483 3347 
L 3283 3347 
Q 3008 2368 2672 1513 
Q 2336 659 2016 0 
L 1350 0 
z
" transform="scale(0.015625)"/>
      <path id="Ubuntu-Medium-73" d="M 1331 557 
Q 1638 557 1779 630 
Q 1920 704 1920 883 
Q 1920 1050 1769 1158 
Q 1619 1267 1274 1395 
Q 1062 1472 886 1558 
Q 710 1645 582 1760 
Q 454 1875 380 2038 
Q 307 2202 307 2438 
Q 307 2899 646 3164 
Q 986 3430 1568 3430 
Q 1862 3430 2131 3376 
Q 2400 3322 2534 3270 
L 2394 2643 
Q 2266 2701 2067 2749 
Q 1869 2797 1606 2797 
Q 1370 2797 1222 2717 
Q 1075 2637 1075 2470 
Q 1075 2387 1104 2323 
Q 1133 2259 1203 2204 
Q 1274 2150 1389 2096 
Q 1504 2042 1670 1984 
Q 1946 1882 2138 1782 
Q 2330 1683 2454 1558 
Q 2579 1434 2636 1274 
Q 2694 1114 2694 890 
Q 2694 410 2339 163 
Q 1984 -83 1325 -83 
Q 883 -83 614 -9 
Q 346 64 237 109 
L 371 755 
Q 544 685 784 621 
Q 1024 557 1331 557 
z
" transform="scale(0.015625)"/>
      <path id="Ubuntu-Medium-65" d="M 307 1658 
Q 307 2099 438 2432 
Q 570 2765 787 2985 
Q 1005 3206 1286 3318 
Q 1568 3430 1862 3430 
Q 2554 3430 2941 3001 
Q 3328 2573 3328 1722 
Q 3328 1658 3325 1578 
Q 3322 1498 3315 1434 
L 1107 1434 
Q 1139 1030 1392 809 
Q 1645 589 2125 589 
Q 2406 589 2640 640 
Q 2874 691 3008 749 
L 3110 115 
Q 3046 83 2934 48 
Q 2822 13 2678 -16 
Q 2534 -45 2368 -64 
Q 2202 -83 2029 -83 
Q 1587 -83 1260 48 
Q 934 179 723 412 
Q 512 646 409 963 
Q 307 1280 307 1658 
z
M 2554 2003 
Q 2554 2163 2509 2307 
Q 2464 2451 2377 2556 
Q 2291 2662 2166 2723 
Q 2042 2784 1869 2784 
Q 1690 2784 1555 2717 
Q 1421 2650 1328 2541 
Q 1235 2432 1184 2291 
Q 1133 2150 1114 2003 
L 2554 2003 
z
" transform="scale(0.015625)"/>
      <path id="Ubuntu-Medium-69" d="M 1274 0 
L 499 0 
L 499 3347 
L 1274 3347 
L 1274 0 
z
M 1357 4326 
Q 1357 4109 1216 3981 
Q 1075 3853 883 3853 
Q 685 3853 544 3981 
Q 403 4109 403 4326 
Q 403 4550 544 4678 
Q 685 4806 883 4806 
Q 1075 4806 1216 4678 
Q 1357 4550 1357 4326 
z
" transform="scale(0.015625)"/>
      <path id="Ubuntu-Medium-6e" d="M 493 3238 
Q 717 3302 1075 3360 
Q 1434 3418 1869 3418 
Q 2278 3418 2553 3306 
Q 2829 3194 2992 2992 
Q 3155 2790 3222 2505 
Q 3290 2221 3290 1882 
L 3290 0 
L 2515 0 
L 2515 1760 
Q 2515 2029 2480 2217 
Q 2445 2406 2365 2524 
Q 2285 2643 2147 2697 
Q 2010 2752 1811 2752 
Q 1664 2752 1504 2733 
Q 1344 2714 1267 2701 
L 1267 0 
L 493 0 
L 493 3238 
z
" transform="scale(0.015625)"/>
      <path id="Ubuntu-Medium-74" d="M 454 4230 
L 1229 4358 
L 1229 3347 
L 2419 3347 
L 2419 2701 
L 1229 2701 
L 1229 1338 
Q 1229 934 1357 761 
Q 1485 589 1792 589 
Q 2003 589 2166 633 
Q 2330 678 2426 717 
L 2554 102 
Q 2419 45 2201 -16 
Q 1984 -77 1690 -77 
Q 1331 -77 1091 19 
Q 851 115 710 297 
Q 570 480 512 739 
Q 454 998 454 1331 
L 454 4230 
z
" transform="scale(0.015625)"/>
     </defs>
     <use xlink:href="#Ubuntu-Medium-63"/>
     <use xlink:href="#Ubuntu-Medium-6f" x="46.074997"/>
     <use xlink:href="#Ubuntu-Medium-76" x="104.624985"/>
     <use xlink:href="#Ubuntu-Medium-73" x="157.224976"/>
     <use xlink:href="#Ubuntu-Medium-65" x="202.924973"/>
     <use xlink:href="#Ubuntu-Medium-69" x="260.024963"/>
     <use xlink:href="#Ubuntu-Medium-73" x="287.624954"/>
     <use xlink:href="#Ubuntu-Medium-6e" x="333.324951"/>
     <use xlink:href="#Ubuntu-Medium-65" x="391.824936"/>
     <use xlink:href="#Ubuntu-Medium-74" x="448.924927"/>
    </g>
   </g>
  </g>
 </g>
 <defs>
  <clipPath id="p7e70db45c6">
   <rect x="7.2" y="7.2" width="55.44" height="55.44"/>
  </clipPath>
 </defs>
</svg>
